<?xml version="1.0" encoding="utf-8"?><svg viewBox="0 0 92 32" xmlns="http://www.w3.org/2000/svg" xmlns:xlink="http://www.w3.org/1999/xlink"><style>:root>svg{display:none}:root>svg:target{display:block}</style><svg viewBox="0 0 18 18" id="arrow" xmlns="http://www.w3.org/2000/svg"><path d="M5.25 12.75l7.5-7.5m-7.5 0h7.5v7.5"/></svg><svg viewBox="0 0 92 32" id="dash-btn" xmlns="http://www.w3.org/2000/svg"><path d="M0 4c0-2.21 1.75-4 3.9-4h84.2C90.25 0 92 1.79 92 4v24c0 2.21-1.75 4-3.9 4H3.9A3.95 3.95 0 010 28V4z"/><path fill-rule="evenodd" clip-rule="evenodd" d="M32 32V0h1v32h-1zM16 10l-.41.76-5.2 9.53L10 21h12l-.39-.71-5.19-9.53L16 10zm51.61 10.59h-1.35v-9.27h1.35v9.27zm-26.26 0v-8.84h3.28c2.7 0 4.27 1.61 4.27 4.4 0 2.8-1.56 4.44-4.27 4.44h-3.28zm3.12-7.66h-1.71v6.47h1.71c1.9 0 3-1.18 3-3.24 0-2.04-1.12-3.23-3-3.23zm9.05 6.7c.82 0 1.38-.29 1.63-.83h1.3c-.29 1.18-1.4 1.91-2.96 1.91-1.97 0-3.17-1.31-3.17-3.44 0-2.11 1.23-3.47 3.16-3.47 1.9 0 3.06 1.27 3.06 3.36v.45H51.7v.06c.04 1.2.74 1.97 1.82 1.97v-.01zm1.64-2.97c-.03-1.08-.69-1.78-1.69-1.78s-1.7.7-1.77 1.78h3.46zm6.56-2.84a2.4 2.4 0 00-2.15 1.22h-.1v-1.1h-1.3v8.86h1.35v-3.22h.1c.36.7 1.14 1.12 2.11 1.12 1.73 0 2.83-1.34 2.83-3.44 0-2.11-1.1-3.44-2.84-3.44zm-.39 5.75c-1.13 0-1.84-.89-1.84-2.31 0-1.43.71-2.32 1.85-2.32 1.15 0 1.83.87 1.83 2.32 0 1.45-.68 2.31-1.84 2.31zm11.2 1.14c2.01 0 3.24-1.3 3.24-3.45 0-2.15-1.24-3.46-3.23-3.46-2 0-3.24 1.31-3.24 3.46s1.23 3.45 3.24 3.45h-.01zm0-1.12c-1.17 0-1.83-.85-1.83-2.33s.66-2.34 1.84-2.34c1.17 0 1.84.86 1.84 2.34s-.67 2.33-1.84 2.33h-.01zm7.91 1.3c-.58 1.6-1.23 2.11-2.63 2.11-.1 0-.43-.01-.56-.03v-1.08c.11.02.32.03.44.03.65 0 1.01-.27 1.24-.97l.1-.35-2.48-6.67h1.48l1.72 5.33h.1l1.71-5.33H83l-2.56 6.96z"/><path fill-rule="evenodd" clip-rule="evenodd" d="M16 10l-.41.76-5.2 9.53L10 21h12l-.39-.71-5.19-9.53L16 10zm51.61 10.59h-1.35v-9.27h1.35v9.27zm-26.26 0v-8.84h3.28c2.7 0 4.27 1.61 4.27 4.4 0 2.8-1.56 4.44-4.27 4.44h-3.28zm3.12-7.66h-1.71v6.47h1.71c1.9 0 3-1.18 3-3.24 0-2.04-1.12-3.23-3-3.23zm9.05 6.7c.82 0 1.38-.29 1.63-.83h1.3c-.29 1.18-1.4 1.91-2.96 1.91-1.97 0-3.17-1.31-3.17-3.44 0-2.11 1.23-3.47 3.16-3.47 1.9 0 3.06 1.27 3.06 3.36v.45H51.7v.06c.04 1.2.74 1.97 1.82 1.97v-.01zm1.64-2.97c-.03-1.08-.69-1.78-1.69-1.78s-1.7.7-1.77 1.78h3.46zm6.56-2.84a2.4 2.4 0 00-2.15 1.22h-.1v-1.1h-1.3v8.86h1.35v-3.22h.1c.36.7 1.14 1.12 2.11 1.12 1.73 0 2.83-1.34 2.83-3.44 0-2.11-1.1-3.44-2.84-3.44zm-.39 5.75c-1.13 0-1.84-.89-1.84-2.31 0-1.43.71-2.32 1.85-2.32 1.15 0 1.83.87 1.83 2.32 0 1.45-.68 2.31-1.84 2.31zm11.2 1.14c2.01 0 3.24-1.3 3.24-3.45 0-2.15-1.24-3.46-3.23-3.46-2 0-3.24 1.31-3.24 3.46s1.23 3.45 3.24 3.45h-.01zm0-1.12c-1.17 0-1.83-.85-1.83-2.33s.66-2.34 1.84-2.34c1.17 0 1.84.86 1.84 2.34s-.67 2.33-1.84 2.33h-.01zm7.91 1.3c-.58 1.6-1.23 2.11-2.63 2.11-.1 0-.43-.01-.56-.03v-1.08c.11.02.32.03.44.03.65 0 1.01-.27 1.24-.97l.1-.35-2.48-6.67h1.48l1.72 5.33h.1l1.71-5.33H83l-2.56 6.96z"/></svg><svg viewBox="0 0 11 7" id="dropdown" xmlns="http://www.w3.org/2000/svg"><path fill-rule="evenodd" clip-rule="evenodd" d="M.293 1.293a1 1 0 011.414 0L5 4.586l3.293-3.293a1 1 0 111.414 1.414l-4 4a1 1 0 01-1.414 0l-4-4a1 1 0 010-1.414z"/></svg><svg viewBox="0 0 24 24" id="git" xmlns="http://www.w3.org/2000/svg"><path fill-rule="evenodd" clip-rule="evenodd" d="M12 2C6.477 2 2 6.484 2 12.017c0 4.425 2.865 8.18 6.839 9.504.5.092.682-.217.682-.483 0-.237-.008-.868-.013-1.703-2.782.605-3.369-1.343-3.369-1.343-.454-1.158-1.11-1.466-1.11-1.466-.908-.62.069-.608.069-.608 1.003.07 1.531 1.032 1.531 1.032.892 1.53 2.341 1.088 2.91.832.092-.647.35-1.088.636-1.338-2.22-.253-4.555-1.113-4.555-4.951 0-1.093.39-1.988 1.029-2.688-.103-.253-.446-1.272.098-2.65 0 0 .84-.27 2.75 1.026A9.564 9.564 0 0112 6.844a9.59 9.59 0 012.504.337c1.909-1.296 2.747-1.027 2.747-1.027.546 1.379.202 2.398.1 2.651.64.7 1.028 1.595 1.028 2.688 0 3.848-2.339 4.695-4.566 4.943.359.309.678.92.678 1.855 0 1.338-.012 2.419-.012 2.747 0 .268.18.58.688.482A10.02 10.02 0 0022 12.017C22 6.484 17.522 2 12 2z"/></svg><svg viewBox="0 0 16 17" id="git-2" xmlns="http://www.w3.org/2000/svg"><path d="M11 16.5v-2.902a2.529 2.529 0 00-.705-1.958c2.355-.263 4.83-1.155 4.83-5.25A4.08 4.08 0 0014 3.577 3.803 3.803 0 0013.932.75S13.047.487 11 1.86a10.035 10.035 0 00-5.25 0C3.703.487 2.817.75 2.817.75a3.802 3.802 0 00-.067 2.827 4.08 4.08 0 00-1.125 2.835c0 4.065 2.475 4.958 4.83 5.25a2.527 2.527 0 00-.705 1.935V16.5m0-2.25C2 15.375 2 12.375.5 12l5.25 2.25z"/></svg><svg viewBox="0 0 21 21" id="haeder-x" xmlns="http://www.w3.org/2000/svg"><path d="M15.75 5.25l-10.5 10.5m0-10.5l10.5 10.5"/></svg><svg viewBox="0 0 12 12" id="header-1" xmlns="http://www.w3.org/2000/svg"><path d="M1.333 3.333h9.334-9.334zm0 0a1.333 1.333 0 110-2.666h9.334a1.333 1.333 0 010 2.666H1.333zm0 0V10a1.333 1.333 0 001.334 1.333h6.666A1.333 1.333 0 0010.667 10V3.333H1.333zM4.667 6h2.666-2.666z"/></svg><svg viewBox="0 0 12 12" id="header-2" xmlns="http://www.w3.org/2000/svg"><path d="M8 2.667A1.333 1.333 0 019.333 4L8 2.667zM12 4a4 4 0 01-5.162 3.829L5.333 9.333H4v1.334H2.667V12h-2A.666.666 0 010 11.333V9.61c0-.176.07-.346.195-.471l3.976-3.976A4 4 0 1112 4z"/></svg><svg viewBox="0 0 12 12" id="header-3" xmlns="http://www.w3.org/2000/svg"><path d="M.667 2.667v6.666C.667 10.807 3.055 12 6 12c2.945 0 5.333-1.193 5.333-2.667V2.667H.667zm0 0C.667 4.14 3.055 5.333 6 5.333c2.945 0 5.333-1.193 5.333-2.666H.667zm0 0C.667 1.193 3.055 0 6 0c2.945 0 5.333 1.193 5.333 2.667H.667zM11.333 6c0 1.473-2.388 2.667-5.333 2.667C3.055 8.667.667 7.473.667 6"/></svg><svg viewBox="0 0 21 21" id="header-4" xmlns="http://www.w3.org/2000/svg"><path d="M10.5 17.5V8.75m5.25 8.75v-14m-10.5 14V14"/></svg><svg viewBox="0 0 21 21" id="header-5" xmlns="http://www.w3.org/2000/svg"><path d="M7.875 9.625L10.5 12.25l8.75-8.75"/><path d="M18.375 10.5v6.125a1.75 1.75 0 01-1.75 1.75H4.375a1.75 1.75 0 01-1.75-1.75V4.375a1.75 1.75 0 011.75-1.75H14"/></svg><svg viewBox="0 0 20 20" id="moon" xmlns="http://www.w3.org/2000/svg"><path fill-rule="evenodd" clip-rule="evenodd" d="M7.353.94a1 1 0 01.22 1.08 8 8 0 0010.408 10.407 1 1 0 011.301 1.3A10.003 10.003 0 0110 20C4.477 20 0 15.523 0 10 0 5.793 2.598 2.195 6.273.718a1 1 0 011.08.22V.94z"/></svg><svg viewBox="0 0 21 21" id="shuffle" xmlns="http://www.w3.org/2000/svg"><path d="M14 2.625h4.375V7M3.5 17.5L18.375 2.625m0 11.375v4.375H14m-.875-5.25l5.25 5.25M3.5 3.5l4.375 4.375"/></svg><svg viewBox="0 0 32 32" id="storage" xmlns="http://www.w3.org/2000/svg"><path d="M0 6a6 6 0 016-6h20a6 6 0 016 6v20a6 6 0 01-6 6H6a6 6 0 01-6-6V6z"/><path d="M9.375 12h12.25-12.25zm0 0a1.75 1.75 0 010-3.5h12.25a1.75 1.75 0 010 3.5H9.375zm0 0v8.75a1.75 1.75 0 001.75 1.75h8.75a1.75 1.75 0 001.75-1.75V12H9.375zm4.375 3.5h3.5z"/></svg><svg viewBox="0 0 28 28" id="sun" xmlns="http://www.w3.org/2000/svg"><path fill-rule="evenodd" clip-rule="evenodd" d="M14 0a1.4 1.4 0 011.4 1.4v1.4a1.4 1.4 0 01-2.8 0V1.4A1.4 1.4 0 0114 0zM4.1 4.1a1.4 1.4 0 011.98 0l.99.99a1.4 1.4 0 11-1.98 1.98l-.99-.99a1.4 1.4 0 010-1.98zm19.8 0a1.4 1.4 0 010 1.98l-.99.99a1.4 1.4 0 01-1.98-1.98l.99-.99a1.4 1.4 0 011.98 0zM7 14a7 7 0 1114 0 7 7 0 01-14 0zm-7 0a1.4 1.4 0 011.4-1.4h1.4a1.4 1.4 0 110 2.8H1.4A1.4 1.4 0 010 14zm23.8 0a1.4 1.4 0 011.4-1.4h1.4a1.4 1.4 0 110 2.8h-1.4a1.4 1.4 0 01-1.4-1.4zm-2.87 6.93a1.399 1.399 0 011.98 0l.99.99a1.401 1.401 0 01-1.526 2.283 1.401 1.401 0 01-.454-.303l-.99-.99a1.399 1.399 0 010-1.98zm-15.84 0a1.4 1.4 0 111.98 1.98l-.99.99a1.4 1.4 0 01-1.98-1.98l.99-.99zM14 23.8a1.4 1.4 0 011.4 1.4v1.4a1.4 1.4 0 11-2.8 0v-1.4a1.4 1.4 0 011.4-1.4z"/><defs><linearGradient id="oa" x1="0" y1="0" x2="28" y2="28" gradientUnits="userSpaceOnUse"><stop stop-color="#BBB"/><stop offset="1" stop-color="#BBB"/></linearGradient></defs></svg><svg viewBox="0 0 20 18" id="twit" xmlns="http://www.w3.org/2000/svg"><path d="M6.29 17.251c7.547 0 11.675-6.253 11.675-11.675 0-.178 0-.355-.012-.53A8.349 8.349 0 0020 2.92a8.19 8.19 0 01-2.357.646 4.118 4.118 0 001.804-2.27 8.224 8.224 0 01-2.605.996 4.107 4.107 0 00-6.993 3.743 11.65 11.65 0 01-8.457-4.287 4.106 4.106 0 001.27 5.477A4.072 4.072 0 01.8 6.713v.052a4.105 4.105 0 003.292 4.022 4.096 4.096 0 01-1.853.07 4.108 4.108 0 003.834 2.85A8.234 8.234 0 010 15.407a11.616 11.616 0 006.29 1.84"/></svg><svg viewBox="0 0 21 21" id="wifi" xmlns="http://www.w3.org/2000/svg"><path d="M4.375 10.981a9.625 9.625 0 0112.32 0M1.242 7.875a14 14 0 0118.515 0M7.464 14.096a5.25 5.25 0 016.081 0M10.5 17.5h.009"/></svg></svg>